<?xml version="1.0" standalone="no"?>
<!DOCTYPE svg PUBLIC "-//W3C//DTD SVG 20010904//EN"
 "http://www.w3.org/TR/2001/REC-SVG-20010904/DTD/svg10.dtd">
<svg version="1.0" xmlns="http://www.w3.org/2000/svg"
 width="800.000000pt" height="604.000000pt" viewBox="0 0 800.000000 604.000000"
 preserveAspectRatio="xMidYMid meet">

<g transform="translate(0.000000,604.000000) scale(0.100000,-0.100000)"
fill="#000000" stroke="none">
<path d="M2632 4871 c-163 -86 -342 -186 -342 -192 0 -4 177 -139 509 -388
l34 -25 -31 54 c-17 30 -38 82 -47 114 -34 116 3 246 100 350 25 27 44 50 43
51 -2 1 -47 18 -100 37 l-97 35 -69 -36z"/>
<path d="M3280 4664 c-22 -40 -14 -102 20 -167 17 -32 28 -62 26 -66 -3 -5
-93 -56 -201 -115 -107 -59 -195 -111 -195 -116 0 -7 728 -560 770 -585 13 -8
13 -6 -1 15 -77 120 -140 243 -131 252 6 6 100 64 209 129 l198 117 19 -36
c10 -21 61 -115 113 -211 53 -95 91 -176 86 -180 -5 -3 -80 -51 -166 -105 -86
-55 -157 -102 -157 -106 0 -4 43 -40 95 -79 l95 -72 450 377 c390 325 482 405
441 380 -5 -3 -82 21 -171 54 -90 33 -164 59 -165 57 -1 -1 -10 -53 -21 -115
l-18 -113 -31 5 c-16 3 -95 13 -175 22 -80 9 -146 18 -147 18 -1 1 9 71 22
156 14 85 23 155 22 156 -1 1 -74 28 -162 59 -88 32 -165 62 -172 67 -8 6 -17
1 -28 -16 -32 -48 -35 -93 -10 -171 5 -18 -21 -36 -206 -143 -116 -68 -212
-122 -214 -120 -2 2 -20 35 -41 73 -37 66 -39 75 -39 155 0 79 3 91 43 176 42
90 52 150 33 197 -4 11 -38 29 -91 48 -46 16 -85 29 -85 29 -1 0 -8 -12 -15
-26z"/>
<path d="M2979 3728 c-1 -89 -1 -167 0 -171 1 -4 3 -23 6 -42 2 -19 36 -153
74 -298 39 -145 71 -269 71 -276 0 -6 -30 4 -70 24 -38 19 -72 35 -75 35 -3 0
-5 -186 -5 -412 l1 -413 127 -91 c70 -50 251 -181 402 -290 151 -110 290 -210
308 -222 l32 -23 -1 808 0 808 -267 226 c-499 423 -584 494 -593 497 -5 2 -10
-67 -10 -160z m250 -381 c3 -7 31 -113 62 -237 l58 -225 -6 213 c-3 121 -2
212 3 212 5 0 42 -12 82 -26 84 -31 64 11 158 -336 32 -119 59 -216 61 -215 1
2 -3 91 -8 200 -6 108 -9 214 -7 236 l3 38 85 -32 85 -32 3 -397 c1 -218 0
-396 -4 -396 -3 0 -48 24 -100 53 -82 45 -95 57 -105 87 -5 19 -39 136 -75
260 l-64 225 6 -217 c3 -120 2 -218 -3 -218 -5 0 -17 6 -28 13 -11 7 -42 26
-68 41 l-48 28 14 -29 c25 -50 56 -156 72 -247 27 -158 15 -249 -37 -274 -24
-11 -34 -10 -77 9 -130 55 -228 243 -261 496 -19 151 8 233 78 233 34 0 96
-35 136 -76 l35 -36 -9 34 c-52 189 -180 670 -180 674 0 9 135 -48 139 -59z"/>
<path d="M3154 2603 c-10 -37 29 -242 56 -297 19 -40 46 -64 58 -52 17 18 -14
232 -44 306 -16 37 -42 70 -55 70 -5 0 -12 -12 -15 -27z"/>
<path d="M4609 3619 c-558 -376 -589 -398 -589 -422 0 -12 -9 -177 -19 -367
-11 -190 -19 -346 -18 -346 1 -1 92 83 202 187 202 191 272 242 304 222 33
-21 42 -55 37 -143 -5 -99 -35 -198 -83 -277 -18 -31 -33 -56 -33 -57 0 -2 12
-1 28 2 19 2 33 -3 47 -18 29 -32 27 -168 -4 -270 -45 -149 -96 -216 -350
-457 -192 -183 -196 -187 -201 -233 l-5 -47 250 169 c137 94 354 240 480 327
l230 156 3 324 2 323 -49 -45 c-86 -77 -168 -101 -211 -62 -68 62 -66 346 5
600 33 116 140 333 204 412 48 60 49 63 53 137 2 42 3 76 2 76 0 0 -128 -86
-285 -191z"/>
<path d="M4872 3363 c-39 -74 -68 -409 -40 -447 10 -13 21 -16 36 -12 22 7 22
10 22 242 0 129 -2 234 -5 234 -2 0 -8 -8 -13 -17z"/>
<path d="M4223 2522 l-43 -37 -6 -95 -7 -95 42 40 c53 50 77 89 89 143 20 88
-7 104 -75 44z"/>
<path d="M4201 2123 l-50 -48 -4 -98 -4 -98 39 38 c69 66 117 174 104 229 -9
35 -29 30 -85 -23z"/>
<path d="M2308 1074 c-78 -24 -115 -95 -85 -167 18 -41 48 -59 130 -77 64 -15
88 -33 68 -53 -15 -15 -134 -13 -173 2 l-28 11 0 -54 0 -54 42 -7 c67 -12 180
-9 223 5 79 25 119 93 96 163 -15 43 -42 62 -118 82 -87 23 -93 25 -93 40 0 7
7 16 16 19 24 9 105 7 142 -3 l32 -10 0 53 0 53 -37 7 c-63 10 -165 5 -215
-10z"/>
<path d="M3303 1074 c-120 -43 -163 -218 -81 -336 64 -92 282 -97 362 -7 104
114 54 312 -87 347 -61 16 -142 14 -194 -4z m151 -106 c11 -15 16 -45 16 -94
0 -66 -2 -74 -26 -93 -33 -26 -42 -26 -71 1 -20 19 -23 31 -23 93 0 84 16 115
60 115 18 0 34 -8 44 -22z"/>
<path d="M5067 1077 c-61 -19 -103 -60 -122 -118 -34 -101 4 -227 79 -263 100
-47 240 -37 303 23 83 79 81 250 -4 320 -58 48 -169 65 -256 38z m137 -109
c20 -28 21 -155 3 -180 -7 -9 -25 -20 -39 -23 -42 -11 -68 32 -68 114 0 80 17
111 60 111 18 0 34 -8 44 -22z"/>
<path d="M2680 875 l0 -205 75 0 75 0 0 75 0 75 55 0 55 0 0 -75 0 -75 80 0
80 0 0 205 0 205 -80 0 -80 0 0 -70 0 -70 -55 0 -55 0 0 70 0 70 -75 0 -75 0
0 -205z"/>
<path d="M3697 1053 c3 -16 25 -107 47 -203 l41 -175 86 -3 86 -3 33 132 c19
76 36 126 40 118 4 -8 20 -67 36 -131 l28 -118 86 0 85 0 44 188 c25 103 47
195 49 205 4 15 -4 17 -66 17 l-70 0 -23 -125 c-13 -69 -26 -122 -30 -117 -4
4 -19 60 -34 125 l-27 117 -77 0 -77 0 -28 -117 c-16 -65 -31 -121 -35 -125
-4 -5 -17 48 -30 117 l-23 125 -74 0 -74 0 7 -27z"/>
<path d="M4450 876 l0 -206 148 0 c81 0 164 5 184 10 47 13 78 52 78 97 0 46
-14 69 -53 89 -29 15 -30 18 -12 24 62 23 79 111 31 158 -26 27 -27 27 -201
30 l-175 3 0 -205z m224 124 c52 -19 26 -70 -36 -70 -36 0 -38 1 -38 33 0 19
3 37 7 40 9 10 38 9 67 -3z m10 -166 c9 -4 16 -18 16 -34 0 -31 -15 -40 -66
-40 -33 0 -34 1 -34 40 0 39 1 40 34 40 19 0 41 -3 50 -6z"/>
<path d="M5436 1053 c9 -16 37 -57 61 -93 24 -36 43 -70 43 -76 0 -5 -28 -51
-63 -100 -35 -49 -66 -95 -71 -101 -5 -10 13 -13 79 -13 l85 0 32 65 c18 36
35 65 39 65 4 0 24 -29 44 -65 l36 -65 90 0 c69 0 88 3 83 13 -4 6 -34 50 -67
96 -32 46 -61 89 -64 97 -3 7 25 56 62 109 l66 95 -83 0 -84 0 -29 -55 c-17
-30 -32 -55 -35 -55 -3 0 -18 25 -33 55 l-27 55 -91 0 -91 0 18 -27z"/>
</g>
</svg>
